inDegrees=no
nColumns=32
nRows=6
DataType=double
version=3
OpenSimVersion=4.5
endheader
time	pelvis_tilt	pelvis_list	pelvis_rotation	pelvis_tz	pelvis_ty	pelvis_tx	hip_flexion_r	hip_adduction_r	hip_rotation_r	knee_angle_r	ankle_angle_r	subtalar_angle_r	mtp_angle_r	hip_flexion_l	hip_adduction_l	hip_rotation_l	knee_angle_l	ankle_angle_l	subtalar_angle_l	mtp_angle_l	lumbar_extension	lumbar_bending	lumbar_rotation	arm_flex_r	arm_add_r	arm_rot_r	elbow_flex_r	arm_flex_l	arm_add_l	arm_rot_l	elbow_flex_l
0.28	-0.08356239336478216	-0.01863669346777737	-0.001560866863394719	0.04557067000000001	0.93151356	0.31744449	0.1363680013850931	0.05596401754631614	-0.1216694841966201	-0.08606647386434546	0.07266102678731205	0.06669139721063612	0	0.4675435754196074	-0.1451760724906581	-0.1037501559542044	-1.08271230563912	0.01994361940287576	-0.004064402508858931	0	-0.1038640098899644	0.02876328211266782	0.05636148294766914	-0.03147150706952647	-0.1013464186951877	-0.2654368635743488	0.6785853370076329	-0.18176991758393	-0.0595015814248863	-0.4961803895784123	0.5487011093517231
0.29	-0.08388471540600848	-0.01818036072036575	-0.001528553031203316	0.04594266999999999	0.93176781	0.32773592	0.1195525865641809	0.05639312367261269	-0.1262441082304925	-0.07720371234307051	0.08109001220481089	0.06820519143312673	0	0.4866252955618452	-0.1409314682271892	-0.1039540838891988	-1.064357346880598	0.02355280391449906	-0.001961313746928628	0	-0.1026686930519351	0.02805226272614043	0.05688324476422971	-0.02265638640457979	-0.1048246317798792	-0.2654574129064289	0.6860184317943574	-0.1903316515226051	-0.05804714637385479	-0.4992420286989682	0.5449772547883817
0.3	-0.07545210254573199	-0.01365232417908994	-0.001032020244584011	0.04614615999999999	0.93280544	0.33827517	0.09088284135851649	0.05237973661419078	-0.1286292776297289	-0.06446609979634946	0.08730075535245845	0.08000372311809399	0	0.4919129213272094	-0.132483705161334	-0.1081542304278292	-1.038197457570465	0.03565812748098678	0.01094920298373389	0	-0.1129861587540122	0.02208730190521357	0.05760649018216731	-0.01643230196013002	-0.1077782442699817	-0.2621413229323564	0.7042269932078866	-0.1954645079476207	-0.05507399160665062	-0.5141208771454817	0.546331404442324
0.3100000000000001	-0.07539050517915614	-0.01343619400431323	-0.001014850933268073	0.04661712000000001	0.93261932	0.34837945	0.07307750196581193	0.0534245926316629	-0.1314334480479586	-0.05415230888501241	0.09553378619711764	0.08504797092231506	0	0.5069582047202589	-0.1287944761850228	-0.1111188257513157	-1.010010588594692	0.04121346423885955	0.0167368388762569	0	-0.1128342995756584	0.02147032068425072	0.05714765778258372	-0.007346637633298783	-0.1091874971100022	-0.2605958701825638	0.7137591588340704	-0.2023078177573855	-0.05442578644536959	-0.5197115850950411	0.5426185660481552
0.3199999999999998	-0.06794768812804014	-0.009399062785557157	-0.0006396166090706305	0.04666920999999999	0.93322558	0.35905189	0.04731908882365335	0.0499133786869418	-0.1362556618715251	-0.04506979993893585	0.1033668235310023	0.09254602424580474	0	0.5086993174313132	-0.1194450109268063	-0.114946401043313	-0.97274711494717	0.04778666479919065	0.03016154042559831	0	-0.1216197093262154	0.01654813562286053	0.05698414189922165	-0.002028083760924624	-0.1127711275579154	-0.2571324056536505	0.7287282378358522	-0.2077910223262014	-0.05031917576654504	-0.5320100207911487	0.541415117372075
0.3299999999999998	-0.06854035226380123	-0.01001196837492683	-0.0006872857063552643	0.04684338999999998	0.93256915	0.36901884	0.03198578159812891	0.05177425484407053	-0.1413422358299692	-0.0370189762321971	0.1114938821722707	0.09394057914459544	0	0.5207359682258544	-0.1145660355053064	-0.1156753266353013	-0.9347343758150896	0.04693020276277145	0.03835137768739624	0	-0.1208542848853107	0.01700820319195576	0.05785139530640594	0.006250965307457295	-0.1157886278252871	-0.256803573230737	0.7370844161454724	-0.2130106071288083	-0.04793192087338543	-0.5360362164718852	0.5385777530604005
